# xmcd CD database file
#
# Track frame offsets:
#	150
#	18162
#	37900
#	58660
#	74160
#	94960
#	120785
#	142842
#	162285
#	184522
#	206762
#	221095
#
# Disc length: 3159 seconds
#
# Revision: 2
# Processed by: cddbd v1.5.2PL0 Copyright (c) Steve Scherf et al.
# Submitted via: CDex 1.51
#
DISCID=a50c550c
DTITLE=Lucky Peterson - Lucky Peterson
DYEAR=1999
DGENRE=Blues
TTITLE0=Deal With It
TTITLE1=The Otherside
TTITLE2=Tribute To Luther Allison
TTITLE3=Shake
TTITLE4=Funny How Time Slips Away
TTITLE5=Why Can't We Live Together
TTITLE6=Ask Me Nothing 'bout The Blues
TTITLE7=She's Giving Me The Blues
TTITLE8=Seduction
TTITLE9=Ta' Ta' You
TTITLE10=Don't Cry No More
TTITLE11=Ode To Billy Joe
EXTD=©1999 BLUE THUMB FRANCE, A UNIVERSAL MUSIC COMPANY YEAR: 1999
EXTT0=
EXTT1=
EXTT2=
EXTT3=
EXTT4=
EXTT5=
EXTT6=
EXTT7=
EXTT8=
EXTT9=
EXTT10=
EXTT11=
PLAYORDER=
